<svg xmlns="http://www.w3.org/2000/svg" viewBox="0 0 40 40" fill="none">
  <defs>
    <linearGradient id="eye-grad" x1="0%" y1="50%" x2="100%" y2="50%">
      <stop offset="0%" stop-color="#38BDF8"/>
      <stop offset="50%" stop-color="#6366F1"/>
      <stop offset="100%" stop-color="#A855F7"/>
    </linearGradient>
    <linearGradient id="iris-grad" x1="0%" y1="0%" x2="100%" y2="100%">
      <stop offset="0%" stop-color="#06B6D4"/>
      <stop offset="100%" stop-color="#1E1B4B"/>
    </linearGradient>
    <radialGradient id="pupil-grad" cx="40%" cy="40%">
      <stop offset="0%" stop-color="#38BDF8"/>
      <stop offset="100%" stop-color="#0F172A"/>
    </radialGradient>
  </defs>
  <!-- Eye shape -->
  <path d="M4 20C4 20 12 8 20 8C28 8 36 20 36 20C36 20 28 32 20 32C12 32 4 20 4 20Z" fill="url(#eye-grad)" opacity="0.15" stroke="url(#eye-grad)" stroke-width="1.5"/>
  <!-- Iris -->
  <circle cx="20" cy="20" r="9" fill="url(#iris-grad)" stroke="url(#eye-grad)" stroke-width="1"/>
  <!-- Pupil -->
  <circle cx="20" cy="20" r="4.5" fill="url(#pupil-grad)"/>
  <!-- Highlight -->
  <circle cx="17.5" cy="17.5" r="1.8" fill="white" opacity="0.7"/>
  <!-- Circuit lines -->
  <line x1="29" y1="16" x2="33" y2="14" stroke="#38BDF8" stroke-width="0.6" opacity="0.5"/>
  <line x1="29" y1="24" x2="33" y2="26" stroke="#A855F7" stroke-width="0.6" opacity="0.5"/>
  <circle cx="33" cy="14" r="0.8" fill="#38BDF8" opacity="0.6"/>
  <circle cx="33" cy="26" r="0.8" fill="#A855F7" opacity="0.6"/>
  <line x1="11" y1="16" x2="7" y2="14" stroke="#38BDF8" stroke-width="0.6" opacity="0.5"/>
  <line x1="11" y1="24" x2="7" y2="26" stroke="#A855F7" stroke-width="0.6" opacity="0.5"/>
  <circle cx="7" cy="14" r="0.8" fill="#38BDF8" opacity="0.6"/>
  <circle cx="7" cy="26" r="0.8" fill="#A855F7" opacity="0.6"/>
</svg>
